{
  "accessors": [
    {
      "bufferView": 2,
      "componentType": 5126,
      "count": 65532,
      "max": [
        15.827773094177246,
        29.122802734375,
        25.453420639038086
      ],
      "min": [
        -3.1987695693969727,
        -13.424786567687988,
        11.030821800231934
      ],
      "type": "VEC3"
    },
    {
      "bufferView": 2,
      "byteOffset": 786384,
      "componentType": 5126,
      "count": 65532,
      "max": [
        0.9999997615814209,
        0.9999997019767761,
        0.9999998211860657
      ],
      "min": [
        -0.9999998807907104,
        -0.9999998807907104,
        -0.9997801780700684
      ],
      "type": "VEC3"
    },
    {
      "bufferView": 1,
      "componentType": 5126,
      "count": 65532,
      "max": [
        0.9987729787826538,
        0.9997557401657104
      ],
      "min": [
        0.000244140625,
        0.0012556506553664804
      ],
      "type": "VEC2"
    },
    {
      "bufferView": 0,
      "componentType": 5125,
      "count": 269472,
      "type": "SCALAR"
    },
    {
      "bufferView": 2,
      "byteOffset": 1572768,
      "componentType": 5126,
      "count": 65532,
      "max": [
        15.524477005004883,
        29.220130920410156,
        48.641998291015625
      ],
      "min": [
        -3.203662157058716,
        -9.608011245727539,
        11.025437355041504
      ],
      "type": "VEC3"
    },
    {
      "bufferView": 2,
      "byteOffset": 2359152,
      "componentType": 5126,
      "count": 65532,
      "max": [
        0.9999985694885254,
        0.999999463558197,
        0.9999997615814209
      ],
      "min": [
        -0.9999997615814209,
        -0.9999995231628418,
        -0.9999924302101135
      ],
      "type": "VEC3"
    },
    {
      "bufferView": 1,
      "byteOffset": 524256,
      "componentType": 5126,
      "count": 65532,
      "max": [
        0.9987570643424988,
        0.9792479276657104
      ],
      "min": [
        0.000244140625,
        0.001222331658937037
      ],
      "type": "VEC2"
    },
    {
      "bufferView": 0,
      "byteOffset": 1077888,
      "componentType": 5125,
      "count": 248034,
      "type": "SCALAR"
    },
    {
      "bufferView": 2,
      "byteOffset": 3145536,
      "componentType": 5126,
      "count": 65532,
      "max": [
        15.543970108032227,
        26.662521362304688,
        37.4235725402832
      ],
      "min": [
        -2.1986682415008545,
        -10.02294635772705,
        11.483973503112793
      ],
      "type": "VEC3"
    },
    {
      "bufferView": 2,
      "byteOffset": 3931920,
      "componentType": 5126,
      "count": 65532,
      "max": [
        0.9999979734420776,
        0.9999950528144836,
        0.9999980330467224
      ],
      "min": [
        -0.9999995231628418,
        -0.9999994039535522,
        -0.9999761581420898
      ],
      "type": "VEC3"
    },
    {
      "bufferView": 1,
      "byteOffset": 1048512,
      "componentType": 5126,
      "count": 65532,
      "max": [
        0.9987720847129822,
        0.9968260526657104
      ],
      "min": [
        0.000244140625,
        0.0012248946586623788
      ],
      "type": "VEC2"
    },
    {
      "bufferView": 0,
      "byteOffset": 2070024,
      "componentType": 5125,
      "count": 216843,
      "type": "SCALAR"
    },
    {
      "bufferView": 2,
      "byteOffset": 4718304,
      "componentType": 5126,
      "count": 52926,
      "max": [
        13.684840202331543,
        26.694320678710938,
        28.875890731811523
      ],
      "min": [
        -2.3998899459838867,
        -6.944526672363281,
        11.516908645629883
      ],
      "type": "VEC3"
    },
    {
      "bufferView": 2,
      "byteOffset": 5353416,
      "componentType": 5126,
      "count": 52926,
      "max": [
        0.9999999403953552,
        0.9999998807907104,
        0.9999971389770508
      ],
      "min": [
        -0.9999963045120239,
        -0.9999986290931702,
        -0.9999353289604187
      ],
      "type": "VEC3"
    },
    {
      "bufferView": 1,
      "byteOffset": 1572768,
      "componentType": 5126,
      "count": 52926,
      "max": [
        0.9987446665763855,
        0.9899215698242188
      ],
      "min": [
        0.000244140625,
        0.0011592699447646737
      ],
      "type": "VEC2"
    },
    {
      "bufferView": 0,
      "byteOffset": 2937396,
      "componentType": 5125,
      "count": 165201,
      "type": "SCALAR"
    }
  ],
  "asset": {
    "extras": {
      "author": "Miklosh02 (https://sketchfab.com/Miklosh02)",
      "license": "CC-BY-4.0 (http://creativecommons.org/licenses/by/4.0/)",
      "source": "https://sketchfab.com/3d-models/agyagosszergeny-szent-laszlo-plebaniatemplom-173649c46b56425baad0361862e7af5c",
      "title": "Agyagosszergény, Szent László Plébániatemplom"
    },
    "generator": "Sketchfab-14.91.0",
    "version": "2.0"
  },
  "bufferViews": [
    {
      "buffer": 0,
      "byteLength": 3598200,
      "name": "floatBufferViews",
      "target": 34963
    },
    {
      "buffer": 0,
      "byteLength": 1996176,
      "byteOffset": 3598200,
      "byteStride": 8,
      "name": "floatBufferViews",
      "target": 34962
    },
    {
      "buffer": 0,
      "byteLength": 5988528,
      "byteOffset": 5594376,
      "byteStride": 12,
      "name": "floatBufferViews",
      "target": 34962
    }
  ],
  "buffers": [
    {
      "byteLength": 11582904,
      "uri": "scene.bin"
    }
  ],
  "extensionsUsed": [
    "KHR_materials_unlit"
  ],
  "images": [
    {
      "uri": "textures/tex_u1_v1_baseColor.jpeg"
    }
  ],
  "materials": [
    {
      "doubleSided": true,
      "extensions": {
        "KHR_materials_unlit": {}
      },
      "name": "tex_u1_v1",
      "pbrMetallicRoughness": {
        "baseColorTexture": {
          "index": 0
        },
        "metallicFactor": 0.0
      }
    }
  ],
  "meshes": [
    {
      "name": "Object_0",
      "primitives": [
        {
          "attributes": {
            "NORMAL": 1,
            "POSITION": 0,
            "TEXCOORD_0": 2
          },
          "indices": 3,
          "material": 0,
          "mode": 4
        }
      ]
    },
    {
      "name": "Object_1",
      "primitives": [
        {
          "attributes": {
            "NORMAL": 5,
            "POSITION": 4,
            "TEXCOORD_0": 6
          },
          "indices": 7,
          "material": 0,
          "mode": 4
        }
      ]
    },
    {
      "name": "Object_2",
      "primitives": [
        {
          "attributes": {
            "NORMAL": 9,
            "POSITION": 8,
            "TEXCOORD_0": 10
          },
          "indices": 11,
          "material": 0,
          "mode": 4
        }
      ]
    },
    {
      "name": "Object_3",
      "primitives": [
        {
          "attributes": {
            "NORMAL": 13,
            "POSITION": 12,
            "TEXCOORD_0": 14
          },
          "indices": 15,
          "material": 0,
          "mode": 4
        }
      ]
    }
  ],
  "nodes": [
    {
      "children": [
        1
      ],
      "matrix": [
        1.0,
        0.0,
        0.0,
        0.0,
        0.0,
        2.220446049250313e-16,
        -1.0,
        0.0,
        0.0,
        1.0,
        2.220446049250313e-16,
        0.0,
        0.0,
        0.0,
        0.0,
        1.0
      ],
      "name": "Sketchfab_model"
    },
    {
      "children": [
        2,
        3,
        4,
        5
      ],
      "name": "model.obj.cleaner.materialmerger.gles"
    },
    {
      "mesh": 0,
      "name": "Object_2"
    },
    {
      "mesh": 1,
      "name": "Object_3"
    },
    {
      "mesh": 2,
      "name": "Object_4"
    },
    {
      "mesh": 3,
      "name": "Object_5"
    }
  ],
  "samplers": [
    {
      "magFilter": 9729,
      "minFilter": 9987,
      "wrapS": 10497,
      "wrapT": 10497
    }
  ],
  "scene": 0,
  "scenes": [
    {
      "name": "Sketchfab_Scene",
      "nodes": [
        0
      ]
    }
  ],
  "textures": [
    {
      "sampler": 0,
      "source": 0
    }
  ]
}
